<mxfile host="65bd71144e">
    <diagram id="QRWPHXi1QFlKFJdqeMCT" name="Page-1">
        <mxGraphModel dx="450" dy="320" grid="1" gridSize="10" guides="1" tooltips="1" connect="1" arrows="1" fold="1" page="1" pageScale="1" pageWidth="850" pageHeight="1100" background="#ffffff" math="0" shadow="0">
            <root>
                <mxCell id="0"/>
                <mxCell id="1" parent="0"/>
                <mxCell id="2" value="Calculator Server" style="rounded=1;whiteSpace=wrap;html=1;fillColor=#647687;fontColor=#ffffff;strokeColor=#314354;" vertex="1" parent="1">
                    <mxGeometry x="180" y="240" width="120" height="40" as="geometry"/>
                </mxCell>
                <mxCell id="3" value="Calculator Client" style="rounded=1;whiteSpace=wrap;html=1;fillColor=#647687;fontColor=#ffffff;strokeColor=#314354;" vertex="1" parent="1">
                    <mxGeometry x="420" y="240" width="120" height="40" as="geometry"/>
                </mxCell>
                <mxCell id="4" value="" style="endArrow=oval;startArrow=classic;html=1;exitX=1;exitY=0.25;exitDx=0;exitDy=0;endFill=1;entryX=0;entryY=0.25;entryDx=0;entryDy=0;fontColor=#333333;strokeColor=#4D4D4D;" edge="1" parent="1" source="2" target="3">
                    <mxGeometry width="50" height="50" relative="1" as="geometry">
                        <mxPoint x="360" y="310" as="sourcePoint"/>
                        <mxPoint x="370" y="290" as="targetPoint"/>
                    </mxGeometry>
                </mxCell>
                <mxCell id="5" value="&lt;font style=&quot;font-size: 11px;&quot;&gt;IPC AF_UNIX&lt;br&gt;UNIX Domain Socket&lt;/font&gt;" style="text;html=1;strokeColor=none;fillColor=none;align=center;verticalAlign=middle;whiteSpace=wrap;rounded=0;fontColor=#004C99;" vertex="1" parent="1">
                    <mxGeometry x="295" y="270" width="130" height="50" as="geometry"/>
                </mxCell>
                <mxCell id="6" value="&lt;font style=&quot;font-size: 9px;&quot;&gt;Query&lt;/font&gt;" style="text;html=1;strokeColor=none;fillColor=none;align=center;verticalAlign=middle;whiteSpace=wrap;rounded=0;fontColor=#004C99;" vertex="1" parent="1">
                    <mxGeometry x="330" y="230" width="60" height="20" as="geometry"/>
                </mxCell>
                <mxCell id="7" value="" style="endArrow=oval;startArrow=classic;html=1;endFill=1;entryX=1;entryY=0.75;entryDx=0;entryDy=0;exitX=0;exitY=0.75;exitDx=0;exitDy=0;fontColor=#333333;strokeColor=#4D4D4D;" edge="1" parent="1" source="3" target="2">
                    <mxGeometry width="50" height="50" relative="1" as="geometry">
                        <mxPoint x="340" y="360" as="sourcePoint"/>
                        <mxPoint x="430" y="260" as="targetPoint"/>
                    </mxGeometry>
                </mxCell>
                <mxCell id="8" value="&lt;font style=&quot;font-size: 9px;&quot;&gt;Response&lt;/font&gt;" style="text;html=1;strokeColor=none;fillColor=none;align=center;verticalAlign=middle;whiteSpace=wrap;rounded=0;fontColor=#004C99;" vertex="1" parent="1">
                    <mxGeometry x="330" y="250" width="60" height="20" as="geometry"/>
                </mxCell>
                <mxCell id="9" value="Linux Daemon Service" style="text;html=1;strokeColor=none;fillColor=none;align=center;verticalAlign=middle;whiteSpace=wrap;rounded=0;fontColor=#004C99;" vertex="1" parent="1">
                    <mxGeometry x="180" y="200" width="120" height="30" as="geometry"/>
                </mxCell>
                <mxCell id="10" value="CLI CPP Executable" style="text;html=1;strokeColor=none;fillColor=none;align=center;verticalAlign=middle;whiteSpace=wrap;rounded=0;fontColor=#004C99;" vertex="1" parent="1">
                    <mxGeometry x="450" y="200" width="60" height="30" as="geometry"/>
                </mxCell>
            </root>
        </mxGraphModel>
    </diagram>
</mxfile>